<?xml version="1.0" standalone="no"?>
<!DOCTYPE svg PUBLIC "-//W3C//DTD SVG 20010904//EN"
 "http://www.w3.org/TR/2001/REC-SVG-20010904/DTD/svg10.dtd">
<svg version="1.0" xmlns="http://www.w3.org/2000/svg"
 width="1248.000000pt" height="2518.000000pt" viewBox="0 0 1248.000000 2518.000000"
 preserveAspectRatio="xMidYMid meet">

<g transform="translate(0.000000,2518.000000) scale(0.100000,-0.100000)"
fill="#000000" stroke="none">
<path d="M160 24451 c0 -346 -2 -644 -5 -662 -3 -19 7 9 23 61 128 423 347
725 685 944 246 161 564 258 912 279 28 2 -325 4 -782 5 l-833 2 0 -629z m870
449 c-32 -18 -59 -19 -372 -20 -331 0 -338 0 -338 20 0 20 7 20 373 20 l372
-1 -35 -19z m-212 -122 c-54 -37 -144 -113 -215 -183 l-123 -121 0 183 0 183
216 0 215 0 -93 -62z"/>
<path d="M10769 25068 c305 -23 618 -124 848 -274 338 -219 557 -521 685 -944
16 -52 26 -80 23 -61 -3 18 -5 307 -5 642 l0 609 -640 0 c-633 0 -640 0 -640
20 0 19 -6 20 -192 19 l-193 -2 114 -9z m1391 -168 c0 -20 -7 -20 -337 -20
-314 1 -341 2 -373 20 l-35 19 373 1 c365 0 372 0 372 -20z m-160 -243 l0
-183 -122 121 c-74 72 -160 145 -216 183 l-93 62 215 0 216 0 0 -183z"/>
<path d="M6235 24401 c-45 -20 -70 -60 -70 -112 0 -42 5 -53 33 -81 28 -28 39
-33 82 -33 43 0 54 5 82 33 28 28 33 39 33 82 0 42 -5 54 -31 81 -33 33 -92
46 -129 30z"/>
<path d="M4475 23741 c-98 -45 -139 -151 -96 -246 61 -136 244 -150 328 -27
102 152 -66 350 -232 273z"/>
<path d="M132 23689 c-7 -36 -12 -74 -11 -85 1 -10 7 15 15 56 8 41 12 80 10
85 -1 6 -8 -20 -14 -56z"/>
<path d="M12331 23740 c0 -8 7 -46 14 -85 14 -69 14 -69 9 -14 -5 55 -22 129
-23 99z"/>
<path d="M5467 23592 c-22 -24 -21 -55 1 -75 17 -16 87 -17 804 -17 748 0 786
1 801 18 22 24 21 55 -1 75 -17 16 -87 17 -804 17 -748 0 -786 -1 -801 -18z"/>
<path d="M113 23545 c0 -22 2 -30 4 -17 2 12 2 30 0 40 -3 9 -5 -1 -4 -23z"/>
<path d="M12363 23545 c0 -22 2 -30 4 -17 2 12 2 30 0 40 -3 9 -5 -1 -4 -23z"/>
<path d="M103 23440 c0 -36 2 -50 4 -32 2 17 2 47 0 65 -2 17 -4 3 -4 -33z"/>
<path d="M12373 23440 c0 -36 2 -50 4 -32 2 17 2 47 0 65 -2 17 -4 3 -4 -33z"/>
<path d="M820 22277 c-13 -7 -30 -24 -37 -37 -10 -20 -12 -1941 -10 -9642 l2
-9617 23 -23 23 -23 5429 0 5429 0 23 23 23 23 0 9629 0 9629 -23 23 -23 23
-5417 2 c-4332 2 -5422 0 -5442 -10z"/>
<path d="M85 22070 c-3 -5 -16 -11 -28 -11 -20 -1 -21 -2 -2 -6 11 -3 26 -10
33 -15 9 -8 12 -4 12 16 0 27 -5 33 -15 16z"/>
<path d="M87 21373 c-5 -13 -17 -23 -28 -23 -31 0 -24 -37 9 -43 15 -3 28 -4
30 -2 2 2 2 23 0 46 -2 36 -4 40 -11 22z"/>
<path d="M12365 20322 c-12 -12 -4 -52 10 -52 8 0 15 6 15 14 0 22 19 29 38
14 15 -11 16 -11 4 3 -13 17 -57 31 -67 21z"/>
<path d="M45 20260 c-3 -6 1 -7 10 -4 11 5 18 0 21 -13 5 -17 41 -43 59 -43 7
0 6 36 -1 54 -7 18 -79 23 -89 6z"/>
<path d="M40 20197 c0 -7 9 -13 20 -13 11 0 20 6 20 13 0 7 -9 13 -20 13 -11
0 -20 -6 -20 -13z"/>
<path d="M12390 18790 c0 -34 3 -40 20 -40 25 0 34 21 26 55 -4 16 -13 25 -26
25 -17 0 -20 -7 -20 -40z"/>
<path d="M40 18738 c0 -21 5 -28 20 -28 15 0 20 7 20 28 0 21 -5 28 -20 28
-15 0 -20 -7 -20 -28z"/>
<path d="M108 18722 c-39 -23 -37 -52 2 -52 28 0 30 3 30 35 0 19 -1 35 -2 34
-2 0 -15 -8 -30 -17z"/>
<path d="M12352 18688 c3 -7 17 -15 33 -16 25 -3 27 -2 16 12 -16 19 -55 22
-49 4z"/>
<path d="M78 18265 c3 -20 0 -25 -17 -25 -11 0 -21 -6 -21 -13 0 -7 9 -13 20
-13 11 0 20 6 20 13 0 16 15 17 41 3 17 -10 19 -7 19 25 0 33 -2 35 -34 35
-30 0 -33 -2 -28 -25z"/>
<path d="M40 16768 c0 -21 5 -28 20 -28 15 0 20 7 20 28 0 21 -5 28 -20 28
-15 0 -20 -7 -20 -28z"/>
<path d="M125 16741 c-3 -6 -15 -11 -26 -11 -11 0 -19 -7 -19 -16 0 -11 -6
-15 -20 -11 -11 3 -18 1 -14 -4 3 -5 23 -9 44 -9 34 0 41 4 46 25 7 28 0 43
-11 26z"/>
<path d="M12371 2544 c0 -11 3 -14 6 -6 3 7 2 16 -1 19 -3 4 -6 -2 -5 -13z"/>
<path d="M101 2504 c0 -11 3 -14 6 -6 3 7 2 16 -1 19 -3 4 -6 -2 -5 -13z"/>
<path d="M6095 2475 c-279 -52 -520 -244 -619 -494 -18 -48 -15 -56 26 -66 25
-6 29 -2 73 85 218 422 747 537 1133 247 51 -39 53 -39 72 -22 11 10 20 24 20
31 0 23 -109 103 -203 149 -154 77 -334 101 -502 70z"/>
<path d="M12372 2435 c0 -16 2 -22 5 -12 2 9 2 23 0 30 -3 6 -5 -1 -5 -18z"/>
<path d="M104 2295 c0 -71 1 -99 3 -62 2 37 2 96 0 130 -2 34 -3 4 -3 -68z"/>
<path d="M12372 2380 c0 -14 2 -19 5 -12 2 6 2 18 0 25 -3 6 -5 1 -5 -13z"/>
<path d="M12374 2260 c0 -52 1 -74 3 -47 2 26 2 68 0 95 -2 26 -3 4 -3 -48z"/>
<path d="M101 1788 c-1 -82 21 -263 45 -363 11 -48 14 -172 14 -612 l0 -553
80 0 c64 0 80 3 80 15 0 13 45 15 345 15 302 0 349 -2 380 -17 l35 -17 0 -78
0 -78 319 0 c282 0 323 2 358 17 l39 18 -91 1 c-264 3 -618 120 -870 287 -241
161 -444 407 -566 687 -81 188 -128 379 -153 625 -13 124 -14 126 -15 53z
m717 -1385 l93 -63 -215 0 -216 0 0 183 0 183 123 -121 c71 -70 161 -146 215
-182z"/>
<path d="M12367 1760 c-31 -390 -146 -710 -358 -993 -269 -358 -708 -587
-1219 -636 -53 -5 -939 -9 -1991 -10 -1655 -1 -1902 1 -1945 14 -59 18 -80 19
-41 2 23 -10 -96 -12 -577 -12 -480 0 -600 3 -583 12 30 17 15 16 -41 -2 -41
-14 -227 -15 -1572 -13 -839 2 -1534 6 -1545 11 -11 4 -4 -1 15 -10 33 -17
247 -18 4283 -21 4244 -2 4247 -2 4247 18 0 19 7 20 180 20 l180 0 0 58 c0 93
-3 92 415 92 300 0 345 -2 345 -15 0 -12 16 -15 80 -15 l80 0 0 548 c0 503 2
557 19 643 27 132 43 273 39 349 -3 61 -3 59 -11 -40z m-367 -1235 l0 -185
-217 0 -216 0 94 62 c62 41 134 103 214 184 66 66 121 122 123 122 1 1 2 -81
2 -183z"/>
<path d="M6785 1155 c-113 -116 -182 -161 -320 -208 -83 -28 -101 -31 -225
-31 -98 -1 -151 4 -194 16 -66 19 -86 13 -86 -28 0 -20 8 -26 53 -38 133 -38
250 -44 378 -20 143 27 273 88 388 184 59 49 151 162 151 185 0 7 -10 19 -22
27 -22 14 -27 11 -123 -87z"/>
<path d="M5963 153 c153 -2 401 -2 550 0 150 1 25 2 -278 2 -302 0 -425 -1
-272 -2z"/>
<path d="M2030 128 c-200 -16 -161 -26 108 -27 144 -1 262 1 262 3 0 7 -128
24 -205 29 -38 2 -113 0 -165 -5z"/>
</g>
</svg>
